<?xml version="1.0" encoding="UTF-8"?> <svg xmlns="http://www.w3.org/2000/svg" width="177" height="166" viewBox="0 0 177 166" fill="none"> <path fill-rule="evenodd" clip-rule="evenodd" d="M160.6 100.513C160.576 100.642 160.558 100.77 160.545 100.897C152.395 132.888 123.392 156.546 88.8639 156.546C57.5338 156.546 30.7532 137.067 19.972 109.56L29.9798 116.305C31.9853 117.657 34.707 117.127 36.0587 115.121C37.4105 113.116 36.8804 110.394 34.8749 109.042L13.7782 94.823C12.8382 94.1894 11.7407 93.9693 10.7008 94.1208C10.4009 94.1641 10.1083 94.2384 9.82724 94.341C9.48717 94.4652 9.16402 94.631 8.86541 94.8336C8.00454 95.4179 7.34755 96.3093 7.07642 97.3984L0.930303 122.086C0.34602 124.433 1.77493 126.809 4.12187 127.393C6.4688 127.978 8.84502 126.549 9.42931 124.202L12.1604 113.232C24.3319 143.662 54.0875 165.159 88.8639 165.159C127.995 165.159 160.77 137.941 169.288 101.404C169.397 101.118 169.49 100.82 169.567 100.513C170.14 98.2195 168.941 96.3426 166.439 95.9256C163.936 95.5085 161.225 97.0727 160.6 100.513ZM165.214 51.0591L168.389 39.1737C169.013 36.837 171.413 35.4487 173.75 36.0728C176.086 36.6968 177.475 39.097 176.851 41.4337L170.286 66.0133C169.994 67.1064 169.313 67.9919 168.433 68.561C168.144 68.7478 167.836 68.8985 167.517 69.0118C166.229 69.4683 164.747 69.3169 163.541 68.4744L142.689 53.8989C140.707 52.5133 140.223 49.7831 141.609 47.8008C142.995 45.8185 145.725 45.3348 147.707 46.7204L156.674 52.9883C145.259 26.867 119.193 8.61262 88.8639 8.61262C54.0482 8.61262 24.8506 32.6667 16.9835 65.0626H16.9198C16.2942 67.565 14.8344 69.6503 11.498 69.6503C8.98693 69.6503 7.74435 67.3565 8.16141 65.0626H8.14604C16.1795 27.8692 49.2671 0 88.8639 0C123.309 0 152.828 21.0888 165.214 51.0591ZM133.914 120.967C133.914 124.053 132.885 127.138 128.771 127.138C124.657 127.138 122.6 125.081 122.6 120.967V111.784C121.718 112.607 120.867 113.629 119.927 114.758L119.926 114.758C115.382 120.215 108.759 128.167 86.6017 128.167C63.9741 128.167 43.4037 106.604 43.4037 82.2438C43.4037 62.8122 55.6817 36.7018 88.6587 36.7019C122.6 36.702 133.632 62.3414 133.914 74.7573C134.196 87.1601 134.014 108.647 133.94 117.342V117.342C133.925 119.223 133.914 120.505 133.914 120.967ZM106.685 57.9194C98.4564 54.6281 92.2853 63.4048 90.2282 68.2046C89.4658 67.3729 88.7794 66.4697 88.0929 65.5664C85.3836 62.0015 82.6731 58.4351 75.2878 59.2557C69.7829 59.8674 64.5152 65.119 66.5722 77.4613C68.2178 87.3351 79.6002 102.832 85.0856 109.346C85.7713 110.374 87.7598 112.431 90.2282 112.431C92.6967 112.431 94.6852 110.374 95.3709 109.346C95.8033 108.596 96.2694 107.791 96.7615 106.941L96.7662 106.933L96.7663 106.932C102.127 97.6728 110.574 83.0815 112.315 76.7406C113.872 71.0669 115.8 61.5657 106.685 57.9194Z" fill="#99CA57"></path> </svg> 