<svg width="25" height="24" viewBox="0 0 25 24" fill="none" xmlns="http://www.w3.org/2000/svg">
<path fill-rule="evenodd" clip-rule="evenodd" d="M17.0532 2.00002C15.6056 2 14.6724 2.17246 13.6027 2.69607C13.2066 2.88993 12.835 3.12339 12.49 3.39576C12.1582 3.13866 11.8015 2.91592 11.4218 2.72813C10.3313 2.18878 9.35028 2 7.95455 2C4.21644 2 1.5 5.09727 1.5 9.11988C1.5 12.1578 3.19383 15.0923 6.34884 17.9299C8.00489 19.4193 10.1193 20.8933 11.6336 21.6775L12.5 22.1261L13.3664 21.6775C14.8807 20.8933 16.9951 19.4193 18.6512 17.9299C21.8062 15.0923 23.5 12.1578 23.5 9.11988C23.5 5.13984 20.7579 2.01536 17.0532 2.00002ZM21.5 9.11988C21.5 11.4999 20.0862 13.9493 17.3137 16.4429C15.8022 17.8023 13.859 19.1609 12.5 19.8737C11.141 19.1609 9.19782 17.8023 7.68628 16.4429C4.91382 13.9493 3.5 11.4999 3.5 9.11988C3.5 6.14772 5.38364 4 7.95455 4C9.06428 4 9.74813 4.13159 10.5351 4.52084C11 4.75077 11.4109 5.05437 11.7665 5.43377L12.5023 6.2187L13.2315 5.42755C13.5951 5.03295 14.012 4.72244 14.4819 4.49243C15.2459 4.11849 15.887 4 17.0491 4.00001C19.5882 4.01053 21.5 6.18896 21.5 9.11988Z" fill="#3C3C3C" fill-opacity="0.8"/>
</svg>
