<svg width="24" height="24" viewBox="0 0 24 24" fill="none" xmlns="http://www.w3.org/2000/svg">
<path d="M3.89001 11.9987L2.4132 13.4755L1 12.0623L10.477 2.58529C11.2574 1.8049 12.5226 1.8049 13.303 2.58529L22.78 12.0623L21.3668 13.4755L19.89 11.9987V20C19.89 21.1046 18.9946 22 17.89 22H5.89001C4.78545 22 3.89001 21.1046 3.89001 20V11.9987Z" fill="white" stroke="#3C3C3C" stroke-opacity="0.8"/>
<path fill-rule="evenodd" clip-rule="evenodd" d="M12.2852 11.2465C12.664 11.0611 12.9944 11 13.507 11C14.8187 11.0054 15.7896 12.1117 15.7896 13.521C15.7896 14.5966 15.1899 15.6356 14.0728 16.6403C13.4864 17.1677 12.7377 17.6896 12.2016 17.9673L11.8948 18.1261L11.588 17.9673C11.0519 17.6896 10.3032 17.1677 9.71684 16.6403C8.59974 15.6356 8 14.5966 8 13.521C8 12.0967 8.96182 11 10.2854 11C10.7796 11 11.1269 11.0668 11.513 11.2578C11.6475 11.3243 11.7738 11.4032 11.8913 11.4942C12.0134 11.3978 12.145 11.3151 12.2852 11.2465Z" fill="#3C3C3C" fill-opacity="0.8"/>
</svg>
