<svg width="25" height="24" viewBox="0 0 25 24" fill="none" xmlns="http://www.w3.org/2000/svg">
<path d="M5.39001 11.9987L3.9132 13.4755L2.5 12.0623L11.977 2.58529C12.7574 1.8049 14.0226 1.8049 14.803 2.58529L24.28 12.0623L22.8668 13.4755L21.39 11.9987V20C21.39 21.1046 20.4946 22 19.39 22H7.39001C6.28545 22 5.39001 21.1046 5.39001 20V11.9987Z" fill="#99CA57"/>
<path fill-rule="evenodd" clip-rule="evenodd" d="M13.7852 11.2465C14.164 11.0611 14.4944 11 15.007 11C16.3187 11.0054 17.2896 12.1117 17.2896 13.521C17.2896 14.5966 16.6899 15.6356 15.5728 16.6403C14.9864 17.1677 14.2377 17.6896 13.7016 17.9673L13.3948 18.1261L13.088 17.9673C12.5519 17.6896 11.8032 17.1677 11.2168 16.6403C10.0997 15.6356 9.5 14.5966 9.5 13.521C9.5 12.0967 10.4618 11 11.7854 11C12.2796 11 12.6269 11.0668 13.013 11.2578C13.1475 11.3243 13.2738 11.4032 13.3913 11.4942C13.5134 11.3978 13.645 11.3151 13.7852 11.2465Z" fill="#3C3C3C"/>
</svg>
