<?xml version="1.0" encoding="UTF-8"?>
<svg xmlns="http://www.w3.org/2000/svg" xmlns:xlink="http://www.w3.org/1999/xlink" width="30px" height="24px" viewBox="0 0 30 24" version="1.1">
<g id="surface1">
<path style=" stroke:none;fill-rule:nonzero;fill:rgb(12.54902%,28.627452%,50.980395%);fill-opacity:1;" d="M 9.039062 5.050781 C 8.589844 3.527344 7.371094 3.695312 6.535156 4.402344 C 4.480469 6.304688 1.800781 10.289062 3.515625 16.027344 C 4.949219 20.890625 10.921875 24 10.921875 24 L 3.960938 24 C 3.960938 24 0.367188 19.972656 0.046875 15.234375 C -0.359375 9.246094 2.039062 5.46875 4.820312 3.007812 C 7.433594 0.691406 9.917969 0 9.917969 0 L 15 16.652344 L 20.082031 0 C 20.082031 0 22.566406 0.691406 25.179688 3.007812 C 27.964844 5.46875 30.363281 9.246094 29.957031 15.234375 C 29.632812 19.972656 26.039062 24 26.039062 24 L 19.082031 24 C 19.082031 24 25.050781 20.890625 26.484375 16.027344 C 28.199219 10.289062 25.523438 6.304688 23.464844 4.402344 C 22.628906 3.695312 21.410156 3.527344 20.960938 5.050781 C 19.417969 9.914062 15 23.84375 15 23.84375 C 15 23.84375 10.582031 9.910156 9.042969 5.050781 Z M 9.039062 5.050781 "/>
</g>
</svg>
